<svg width="25" height="25" viewBox="0 0 25 25" fill="none" xmlns="http://www.w3.org/2000/svg">
<path d="M20.3125 9.89585V8.92919C20.3125 7.80908 20.3125 7.24903 20.0945 6.82121C19.9028 6.44488 19.5968 6.13892 19.2205 5.94717C18.7927 5.72919 18.2326 5.72919 17.1125 5.72919H7.8875C6.7674 5.72919 6.20734 5.72919 5.77952 5.94717C5.40319 6.13892 5.09723 6.44488 4.90549 6.82121C4.6875 7.24903 4.6875 7.80908 4.6875 8.92919V9.89585M20.3125 9.89585V17.1125C20.3125 18.2326 20.3125 18.7927 20.0945 19.2205C19.9028 19.5968 19.5968 19.9028 19.2205 20.0945C18.7927 20.3125 18.2326 20.3125 17.1125 20.3125H7.8875C6.76739 20.3125 6.20734 20.3125 5.77952 20.0945C5.40319 19.9028 5.09723 19.5968 4.90549 19.2205C4.6875 18.7927 4.6875 18.2326 4.6875 17.1125V9.89585M20.3125 9.89585H4.6875" stroke="white"/>
<path d="M8.85413 3.64581L8.85413 7.81248M16.1458 3.64581L16.1458 7.81248" stroke="white" stroke-linecap="round"/>
<path d="M12.5 17.7083L12.5 12.5" stroke="white" stroke-linecap="round"/>
<path d="M15.1041 15.1042L9.89579 15.1042" stroke="white" stroke-linecap="round"/>
</svg>
